{
  "source": "C:\\Users\\Peter\\Desktop\\stuff\\MIUN\\quantitative_research\\video_compression\\videos\\BVI-HD\\BVI-HD_CDVL_videos\\ORIG\\SmokeGuns_1920x1080_60fps.mp4",
  "output": "C:\\Users\\Peter\\Desktop\\stuff\\MIUN\\quantitative_research\\video_compression\\compressed_videos\\BVI-HD\\vp9\\4\\SmokeGuns_1920x1080_60fps_vp9.webm",
  "codec": "vp9",
  "ok": "Input #0, mov,mp4,m4a,3gp,3g2,mj2, from 'C:\\Users\\Peter\\Desktop\\stuff\\MIUN\\quantitative_research\\video_compression\\videos\\BVI-HD\\BVI-HD_CDVL_videos\\ORIG\\SmokeGuns_1920x1080_60fps.mp4':\n  Metadata:\n    major_brand     : isom\n    minor_version   : 512\n    compatible_brands: isomiso2avc1mp41\n    encoder         : Lavf54.28.101\n  Duration: 00:00:05.00, start: 0.000000, bitrate: 384353 kb/s\n  Stream #0:0[0x1](und): Video: h264 (High 4:4:4 Predictive) (avc1 / 0x31637661), yuv420p(progressive), 1920x1080, 384348 kb/s, 60 fps, 60 tbr, 60 tbn (default)\n    Metadata:\n      handler_name    : VideoHandler\n      vendor_id       : [0][0][0][0]\n[out#0/webm @ 00000156a85c9700] Codec AVOption b:a (set bitrate (in bits/s)) has not been used for any stream. The most likely reason is either wrong type (e.g. a video option with no video streams) or that it is a private option of some decoder which was not actually used for any stream.\nStream mapping:\n  Stream #0:0 -> #0:0 (h264 (native) -> vp9 (libvpx-vp9))\nPress [q] to stop, [?] for help\n[libvpx-vp9 @ 00000156aa190640] v1.15.2-100-g40561f514\nOutput #0, webm, to 'C:\\Users\\Peter\\Desktop\\stuff\\MIUN\\quantitative_research\\video_compression\\compressed_videos\\BVI-HD\\vp9\\4\\SmokeGuns_1920x1080_60fps_vp9.webm':\n  Metadata:\n    major_brand     : isom\n    minor_version   : 512\n    compatible_brands: isomiso2avc1mp41\n    encoder         : Lavf62.3.100\n  Stream #0:0(und): Video: vp9, yuv420p(tv, progressive), 1920x1080, q=2-31, 4000 kb/s, 60 fps, 1k tbn (default)\n    Metadata:\n      encoder         : Lavc62.11.100 libvpx-vp9\n      handler_name    : VideoHandler\n      vendor_id       : [0][0][0][0]\n    Side data:\n      cpb: bitrate max/min/avg: 0/0/0 buffer size: 4000000 vbv_delay: N/A\nframe=    0 fps=0.0 q=0.0 size=       0KiB time=N/A bitrate=N/A speed=N/A elapsed=0:00:00.52    \nframe=    8 fps=7.5 q=43.0 size=       1KiB time=00:00:00.13 bitrate=  38.0kbits/s speed=0.126x elapsed=0:00:01.06    \nframe=   13 fps=8.2 q=34.0 size=       1KiB time=00:00:00.21 bitrate=  23.4kbits/s speed=0.136x elapsed=0:00:01.58    \nframe=   19 fps=9.0 q=40.0 size=       1KiB time=00:00:00.31 bitrate=  16.0kbits/s speed=0.15x elapsed=0:00:02.11    \nframe=   24 fps=9.1 q=40.0 size=       1KiB time=00:00:00.40 bitrate=  12.7kbits/s speed=0.151x elapsed=0:00:02.65    \nframe=   30 fps=9.5 q=38.0 size=       1KiB time=00:00:00.50 bitrate=  10.1kbits/s speed=0.158x elapsed=0:00:03.16    \nframe=   36 fps=9.7 q=38.0 size=       1KiB time=00:00:00.60 bitrate=   8.4kbits/s speed=0.162x elapsed=0:00:03.69    \nframe=   40 fps=9.4 q=37.0 size=       1KiB time=00:00:00.66 bitrate=   7.6kbits/s speed=0.157x elapsed=0:00:04.23    \nframe=   46 fps=9.7 q=38.0 size=       1KiB time=00:00:00.76 bitrate=   6.6kbits/s speed=0.161x elapsed=0:00:04.76    \nframe=   50 fps=9.5 q=38.0 size=       1KiB time=00:00:00.83 bitrate=   6.1kbits/s speed=0.158x elapsed=0:00:05.27    \nframe=   56 fps=9.7 q=39.0 size=       1KiB time=00:00:00.93 bitrate=   5.4kbits/s speed=0.161x elapsed=0:00:05.78    \nframe=   61 fps=9.7 q=22.0 size=       1KiB time=00:00:01.01 bitrate=   5.0kbits/s speed=0.161x elapsed=0:00:06.30    \nframe=   67 fps=9.8 q=39.0 size=       1KiB time=00:00:01.11 bitrate=   4.5kbits/s speed=0.163x elapsed=0:00:06.83    \nframe=   72 fps=9.8 q=40.0 size=       1KiB time=00:00:01.20 bitrate=   4.2kbits/s speed=0.163x elapsed=0:00:07.35    \nframe=   78 fps=9.9 q=39.0 size=       1KiB time=00:00:01.30 bitrate=   3.9kbits/s speed=0.165x elapsed=0:00:07.87    \nframe=   84 fps= 10 q=41.0 size=       1KiB time=00:00:01.40 bitrate=   3.6kbits/s speed=0.166x elapsed=0:00:08.42    \nframe=   89 fps=9.9 q=39.0 size=       1KiB time=00:00:01.48 bitrate=   3.4kbits/s speed=0.165x elapsed=0:00:08.96    \nframe=   95 fps= 10 q=41.0 size=       1KiB time=00:00:01.58 bitrate=   3.2kbits/s speed=0.167x elapsed=0:00:09.49    \nframe=  100 fps= 10 q=41.0 size=       1KiB time=00:00:01.66 bitrate=   3.0kbits/s speed=0.166x elapsed=0:00:10.03    \nframe=  106 fps= 10 q=42.0 size=       1KiB time=00:00:01.76 bitrate=   2.9kbits/s speed=0.167x elapsed=0:00:10.56    \nframe=  111 fps= 10 q=40.0 size=       1KiB time=00:00:01.85 bitrate=   2.7kbits/s speed=0.167x elapsed=0:00:11.09    \nframe=  118 fps= 10 q=43.0 size=       1KiB time=00:00:01.96 bitrate=   2.6kbits/s speed=0.169x elapsed=0:00:11.62    \nframe=  123 fps= 10 q=41.0 size=       1KiB time=00:00:02.05 bitrate=   2.5kbits/s speed=0.169x elapsed=0:00:12.15    \nframe=  128 fps= 10 q=42.0 size=       1KiB time=00:00:02.13 bitrate=   2.4kbits/s speed=0.168x elapsed=0:00:12.67    \nframe=  135 fps= 10 q=41.0 size=     768KiB time=00:00:02.25 bitrate=2796.2kbits/s speed=0.17x elapsed=0:00:13.20    \nframe=  141 fps= 10 q=41.0 size=     768KiB time=00:00:02.35 bitrate=2677.2kbits/s speed=0.171x elapsed=0:00:13.73    \nframe=  147 fps= 10 q=40.0 size=     768KiB time=00:00:02.45 bitrate=2567.9kbits/s speed=0.172x elapsed=0:00:14.27    \nframe=  151 fps= 10 q=41.0 size=     768KiB time=00:00:02.51 bitrate=2499.9kbits/s speed=0.17x elapsed=0:00:14.80    \nframe=  157 fps= 10 q=40.0 size=     768KiB time=00:00:02.61 bitrate=2404.4kbits/s speed=0.171x elapsed=0:00:15.33    \nframe=  163 fps= 10 q=41.0 size=     768KiB time=00:00:02.71 bitrate=2315.9kbits/s speed=0.171x elapsed=0:00:15.86    \nframe=  169 fps= 10 q=40.0 size=     768KiB time=00:00:02.81 bitrate=2233.7kbits/s speed=0.172x elapsed=0:00:16.39    \nframe=  175 fps= 10 q=41.0 size=     768KiB time=00:00:02.91 bitrate=2157.1kbits/s speed=0.172x elapsed=0:00:16.92    \nframe=  179 fps= 10 q=40.0 size=     768KiB time=00:00:02.98 bitrate=2108.9kbits/s speed=0.171x elapsed=0:00:17.46    \nframe=  186 fps= 10 q=41.0 size=     768KiB time=00:00:03.10 bitrate=2029.5kbits/s speed=0.172x elapsed=0:00:17.98    \nframe=  191 fps= 10 q=40.0 size=     768KiB time=00:00:03.18 bitrate=1976.4kbits/s speed=0.172x elapsed=0:00:18.52    \nframe=  197 fps= 10 q=41.0 size=     768KiB time=00:00:03.28 bitrate=1916.2kbits/s speed=0.172x elapsed=0:00:19.08    \nframe=  202 fps= 10 q=39.0 size=     768KiB time=00:00:03.36 bitrate=1868.7kbits/s speed=0.172x elapsed=0:00:19.59    \nframe=  208 fps= 10 q=40.0 size=     768KiB time=00:00:03.46 bitrate=1814.8kbits/s speed=0.172x elapsed=0:00:20.11    \nframe=  212 fps= 10 q=21.0 size=     768KiB time=00:00:03.53 bitrate=1780.6kbits/s speed=0.171x elapsed=0:00:20.62    \nframe=  218 fps= 10 q=39.0 size=     768KiB time=00:00:03.63 bitrate=1731.6kbits/s speed=0.172x elapsed=0:00:21.14    \nframe=  223 fps= 10 q=39.0 size=     768KiB time=00:00:03.71 bitrate=1692.8kbits/s speed=0.172x elapsed=0:00:21.66    \nframe=  229 fps= 10 q=38.0 size=     768KiB time=00:00:03.81 bitrate=1648.4kbits/s speed=0.172x elapsed=0:00:22.19    \nframe=  235 fps= 10 q=38.0 size=     768KiB time=00:00:03.91 bitrate=1606.3kbits/s speed=0.172x elapsed=0:00:22.71    \nframe=  241 fps= 10 q=37.0 size=     768KiB time=00:00:04.01 bitrate=1566.3kbits/s speed=0.173x elapsed=0:00:23.25    \nframe=  245 fps= 10 q=38.0 size=     768KiB time=00:00:04.08 bitrate=1540.8kbits/s speed=0.172x elapsed=0:00:23.76    \nframe=  251 fps= 10 q=35.0 size=     768KiB time=00:00:04.18 bitrate=1503.9kbits/s speed=0.172x elapsed=0:00:24.28    \nframe=  256 fps= 10 q=36.0 size=     768KiB time=00:00:04.26 bitrate=1474.6kbits/s speed=0.172x elapsed=0:00:24.80    \nframe=  263 fps= 10 q=35.0 size=    2048KiB time=00:00:04.38 bitrate=3827.5kbits/s speed=0.173x elapsed=0:00:25.31    \nframe=  269 fps= 10 q=19.0 size=    2048KiB time=00:00:04.48 bitrate=3742.1kbits/s speed=0.173x elapsed=0:00:25.84    \nframe=  275 fps= 10 q=36.0 size=    2048KiB time=00:00:04.58 bitrate=3660.5kbits/s speed=0.174x elapsed=0:00:26.39    \nframe=  276 fps= 10 q=37.0 size=    2048KiB time=00:00:04.60 bitrate=3647.2kbits/s speed=0.171x elapsed=0:00:26.92    \nframe=  276 fps= 10 q=37.0 size=    2048KiB time=00:00:04.60 bitrate=3647.2kbits/s speed=0.168x elapsed=0:00:27.42    \nframe=  276 fps=9.9 q=37.0 size=    2048KiB time=00:00:04.60 bitrate=3647.2kbits/s speed=0.165x elapsed=0:00:27.94    \nframe=  276 fps=9.7 q=37.0 size=    2048KiB time=00:00:04.60 bitrate=3647.2kbits/s speed=0.161x elapsed=0:00:28.48    \nframe=  276 fps=9.5 q=37.0 size=    2048KiB time=00:00:04.60 bitrate=3647.2kbits/s speed=0.159x elapsed=0:00:29.01    \n[out#0/webm @ 00000156a85c9700] video:2472KiB audio:0KiB subtitle:0KiB other streams:0KiB global headers:0KiB muxing overhead: 0.112568%\nframe=  300 fps= 10 q=37.0 Lsize=    2475KiB time=00:00:05.00 bitrate=4055.5kbits/s speed=0.171x elapsed=0:00:29.23    \n",
  "seconds": 29.66623330116272,
  "probe_out": {}
}